<svg width="141" height="80" viewBox="0 0 141 80" fill="none" xmlns="http://www.w3.org/2000/svg">
                    <path d="M133.956 24.4054C138.095 42.5516 115.436 63.1935 83.3466 70.5146C51.2552 77.8357 21.8855 69.0637 17.7461 50.9174C15.7135 42.0063 20.1422 32.4978 28.9727 24.26C17.3367 33.7859 11.2311 45.2528 13.6635 55.9214C18.157 75.6198 50.0398 85.1426 84.8703 77.1972C119.707 69.2502 144.299 46.8412 139.805 27.1445C137.371 16.4758 126.902 8.79117 112.28 5.25391C123.81 8.84807 131.923 15.4943 133.956 24.4054Z" fill="#339FD7"/>
                    <path d="M6.73919 58.9602C1.95488 40.6085 24.3796 18.876 56.8251 10.4169C89.2705 1.95625 119.453 9.97119 124.237 28.3229C126.587 37.3352 122.377 47.1567 113.643 55.8244C125.193 45.7579 131.051 33.888 128.237 23.0992C123.042 3.17801 90.2789 -5.52447 55.0628 3.65692C19.8403 12.8415 -4.49533 36.4327 0.698342 56.3539C3.51171 67.1427 14.4127 74.6424 29.4137 77.7861C17.5596 74.4875 9.08946 67.9709 6.73919 58.9602Z" fill="#206099"/>
                    <path d="M77.8682 45.5912C77.5868 45.3494 76.4884 44.3236 75.2429 39.9076C74.421 36.9962 73.8362 33.7561 73.4506 31.6113C73.3099 30.8321 73.1992 30.2188 73.1028 29.7605C73.0444 29.476 72.9938 29.2673 72.9432 29.1014C72.5244 27.7073 71.4037 27.5746 71.0702 27.5651C68.8701 27.5177 68.0261 30.0956 67.6199 31.3363C67.0952 32.939 66.5926 35.1075 66.0615 37.4024C65.2048 41.0977 64.0052 46.2724 62.4816 49.1348C62.4104 49.2707 62.401 49.4319 62.4579 49.5758C62.5021 49.6864 62.5811 49.7812 62.6839 49.8413C62.8767 49.9504 63.1723 50.0673 63.5516 50.0563C64.187 50.0389 64.9235 49.6595 65.679 48.9625C66.8138 47.9146 67.6405 46.5759 68.072 45.0918C68.7152 42.879 69.2621 40.5161 69.7837 38.2622C69.956 37.5225 70.152 36.6738 70.359 35.8234C71.4938 41.4344 73.0159 46.8035 75.6349 48.6875C78.3708 50.6553 85.586 51.6257 91.4672 50.6395C100.486 49.1285 105.95 45.9421 105.95 45.9421C98.066 48.3825 82.6146 49.6374 77.8682 45.5912Z" fill="#206099"/>
                    <path d="M62.2735 50.8437C61.8974 50.6525 61.6066 50.3316 61.4438 49.9428C61.2288 49.4276 60.9633 48.6657 60.6567 47.5451C60.0987 45.4983 59.574 42.8968 59.016 40.1434C57.4671 32.4731 55.8644 24.5419 52.4441 21.6163C51.8546 21.1137 51.0438 20.9714 50.3262 21.2449C49.2767 21.6463 48.7757 22.6958 48.2636 24.3743C47.9238 25.4886 47.5381 27.0613 47.1209 29.0512C46.4302 32.3387 45.6257 36.8527 44.7311 42.4668C44.5303 43.7265 44.3344 44.9831 44.1447 46.2206C43.8001 43.3915 43.4003 40.3789 42.9451 37.3775C41.8624 30.2461 40.6817 24.5387 39.4363 20.4135C38.9732 18.8772 38.499 17.5527 38.0059 16.4258C38.0059 16.4258 41.9019 61.9297 41.9114 62.0451C41.9841 63.0203 42.7838 63.7805 43.7622 63.8089C44.7406 63.8358 45.5814 63.1198 45.7094 62.1525C45.7221 62.0656 46.8885 53.3347 48.3142 44.2718C49.8631 34.425 50.8905 29.4131 51.5322 26.8653C53.1333 30.3188 54.3345 36.2664 55.2702 40.8989C56.9803 49.3612 57.916 53.4722 60.4828 54.449C61.0502 54.6639 62.1882 54.8868 63.4337 53.9542C64.6207 53.0644 65.5911 51.5803 66.413 49.7547C64.51 51.5123 63.0496 51.2373 62.2735 50.8437Z" fill="#339FD7"/>
                    <path d="M60.1446 56.7878C60.279 56.7846 60.3912 56.8257 60.4797 56.9142C60.5714 56.9996 60.6204 57.1134 60.6251 57.2556L60.7136 61.4662C60.7168 61.5974 60.6757 61.7096 60.5872 61.8013C60.5018 61.8945 60.3928 61.9435 60.2584 61.9467C60.1225 61.9467 60.0119 61.9056 59.9233 61.8202C59.838 61.7365 59.7937 61.6242 59.7906 61.4851V61.2323C59.6262 61.4646 59.3986 61.6622 59.1078 61.8265C58.817 61.9909 58.504 62.0763 58.1721 62.0858C57.7296 62.0937 57.3265 61.9909 56.9646 61.776C56.601 61.5579 56.3134 61.2481 56.0984 60.8466C55.8866 60.4467 55.776 59.9931 55.7634 59.4873C55.7539 58.9816 55.8471 58.5248 56.0415 58.1154C56.2391 57.7076 56.5125 57.3868 56.8634 57.1545C57.2127 56.919 57.5999 56.7973 58.0267 56.7878C58.3681 56.7799 58.6874 56.8431 58.9877 56.9774C59.2864 57.1134 59.5266 57.2904 59.7084 57.5085L59.7021 57.2746C59.6973 57.1355 59.7353 57.0201 59.8159 56.9269C59.8996 56.8352 60.0087 56.7878 60.1446 56.7878ZM58.2606 61.2259C58.5641 61.2228 58.8312 61.1406 59.0635 60.9794C59.299 60.815 59.4808 60.5969 59.6072 60.3219C59.7337 60.0484 59.7922 59.7402 59.7843 59.3988C59.7795 59.0622 59.7084 58.7587 59.5693 58.4884C59.4302 58.2197 59.2406 58.0079 59.0003 57.8562C58.7601 57.7045 58.4882 57.6318 58.1847 57.6349C57.8765 57.6444 57.6063 57.7282 57.3755 57.8878C57.1432 58.049 56.9646 58.2672 56.8381 58.5453C56.7117 58.8203 56.65 59.127 56.6548 59.4684C56.6627 59.8098 56.737 60.1164 56.8761 60.3851C57.0151 60.6506 57.2016 60.8593 57.4387 61.011C57.679 61.1627 57.9524 61.2354 58.2606 61.2259Z" fill="#339FD7"/>
                    <path d="M66.232 56.6525C66.3663 56.6494 66.4785 56.6904 66.5671 56.779C66.6587 56.8675 66.7077 56.9844 66.7125 57.1267L66.8073 61.3941C66.8152 61.9205 66.7125 62.3614 66.4975 62.7155C66.2826 63.0727 65.9854 63.3414 65.6061 63.5184C65.2267 63.6954 64.7984 63.7871 64.3227 63.7966C64.0603 63.8045 63.7553 63.7665 63.406 63.6828C63.0598 63.5974 62.837 63.5089 62.7358 63.4172C62.5335 63.3193 62.4292 63.1928 62.426 63.0379C62.426 62.9952 62.4355 62.9399 62.4576 62.8735C62.5288 62.7123 62.6489 62.6301 62.818 62.627C62.9018 62.627 62.9919 62.6428 63.0899 62.6776C63.6114 62.8704 64.0192 62.9636 64.31 62.9557C64.8285 62.9462 65.222 62.8135 65.4923 62.5574C65.761 62.2998 65.8922 61.9537 65.8843 61.5206L65.8716 60.9959C65.7357 61.2487 65.5112 61.47 65.1951 61.6597C64.879 61.8493 64.544 61.9458 64.1899 61.9505C63.7426 61.9631 63.3317 61.862 62.9571 61.647C62.5857 61.4289 62.2901 61.1191 62.072 60.7177C61.8523 60.3178 61.7369 59.8642 61.7243 59.3584C61.7148 58.8526 61.8128 58.3959 62.0151 57.9865C62.2174 57.5787 62.4971 57.2579 62.8559 57.0255C63.2131 56.79 63.6146 56.6683 64.0571 56.6588C64.4112 56.6509 64.7431 56.7252 65.056 56.8801C65.3674 57.0366 65.614 57.2278 65.7957 57.4554L65.7894 57.1456C65.7847 57.0066 65.8226 56.8912 65.9032 56.7979C65.987 56.7063 66.096 56.6573 66.232 56.6525ZM64.2784 61.097C64.5945 61.0938 64.8743 61.0132 65.1193 60.8568C65.3627 60.6971 65.5508 60.4774 65.6819 60.1993C65.8163 59.9211 65.8795 59.6113 65.8716 59.2699C65.8669 58.9285 65.791 58.6235 65.644 58.3532C65.5002 58.0845 65.3026 57.8759 65.0497 57.7273C64.8 57.5756 64.5187 57.5028 64.2026 57.506C63.8896 57.5155 63.6114 57.5993 63.368 57.7589C63.1278 57.9201 62.9397 58.1382 62.8054 58.4164C62.6742 58.6946 62.6109 59.0028 62.6157 59.3394C62.6236 59.6777 62.6995 59.9811 62.8433 60.2498C62.9903 60.5201 63.1878 60.7303 63.4376 60.8821C63.6857 61.0338 63.9655 61.1065 64.2784 61.097Z" fill="#339FD7"/>
                    <path d="M69.038 61.2868C69.0411 61.418 69.0016 61.5302 68.9178 61.6219C68.8325 61.7151 68.7234 61.7609 68.5891 61.7609C68.4579 61.7657 68.3457 61.723 68.254 61.6345C68.1655 61.546 68.1181 61.4369 68.1149 61.3057L68.0264 57.1015C68.0217 56.9719 68.0612 56.8597 68.1465 56.7664C68.2351 56.6747 68.3441 56.6257 68.4753 56.621C68.6096 56.621 68.7219 56.6653 68.8104 56.7538C68.8989 56.8423 68.9447 56.9529 68.9495 57.0825L69.038 61.2868ZM68.4563 55.9825C68.2698 55.9872 68.1355 55.9572 68.0517 55.894C67.9711 55.8276 67.9284 55.7169 67.9253 55.5652L67.9189 55.4135C67.9189 55.2586 67.96 55.1464 68.0454 55.0784C68.1339 55.012 68.2682 54.9757 68.45 54.9709C68.6302 54.9678 68.7614 54.9994 68.842 55.0658C68.9258 55.1337 68.9684 55.2412 68.9684 55.3882L68.9747 55.5399C68.9779 55.6964 68.9384 55.8086 68.8546 55.875C68.7693 55.943 68.6365 55.9793 68.4563 55.9825Z" fill="#339FD7"/>
                    <path d="M72.4809 56.4741C72.9946 56.4614 73.4229 56.5341 73.7643 56.689C74.1089 56.8455 74.2843 57.0478 74.2891 57.2959C74.2922 57.4097 74.259 57.5109 74.1879 57.5994C74.12 57.6879 74.0314 57.7322 73.9224 57.7322C73.837 57.7369 73.7707 57.7259 73.7201 57.7006C73.6695 57.6753 73.6015 57.6358 73.5178 57.5804C73.4798 57.5425 73.4182 57.4967 73.3344 57.4414C73.2491 57.4082 73.1353 57.3813 72.993 57.3592C72.8539 57.3339 72.7243 57.3244 72.6074 57.3276C72.2691 57.3323 71.972 57.4161 71.7159 57.5804C71.4631 57.7417 71.2686 57.9598 71.1343 58.238C70.9984 58.5161 70.9336 58.8243 70.9383 59.161C70.9462 59.5024 71.0221 59.809 71.1659 60.0777C71.3129 60.3432 71.5136 60.5519 71.7665 60.7036C72.0226 60.8553 72.3118 60.928 72.6327 60.9186C72.9693 60.9107 73.2427 60.8538 73.4545 60.7479C73.4956 60.7194 73.5557 60.6752 73.6316 60.6151C73.6948 60.5614 73.7485 60.5203 73.7959 60.495C73.8465 60.4697 73.9066 60.4555 73.9793 60.4507C74.1089 60.4507 74.2132 60.4918 74.2891 60.5708C74.3649 60.6467 74.4029 60.751 74.4029 60.8806C74.406 61.0165 74.3238 61.1525 74.1563 61.2916C73.9872 61.4275 73.7596 61.5413 73.4735 61.633C73.1858 61.7215 72.8792 61.7673 72.5505 61.772C72.0573 61.7847 71.6211 61.682 71.2418 61.4623C70.8624 61.2394 70.5653 60.928 70.3504 60.5266C70.1386 60.1267 70.0279 59.6778 70.0153 59.18C70.0058 58.6837 70.1038 58.23 70.3061 57.8207C70.5116 57.4129 70.8024 57.0905 71.1786 56.8534C71.5579 56.6132 71.991 56.4867 72.4809 56.4741Z" fill="#339FD7"/>
                    <path d="M79.3868 56.3718C79.5212 56.3686 79.6334 56.4097 79.7219 56.4982C79.8136 56.5835 79.8626 56.6973 79.8673 56.8396L79.9558 61.0502C79.959 61.1814 79.9179 61.2936 79.8294 61.3852C79.744 61.4785 79.635 61.5275 79.5006 61.5307C79.3647 61.5307 79.254 61.4896 79.1655 61.4042C79.0802 61.3204 79.0359 61.2082 79.0328 61.0691V60.8162C78.8684 61.0486 78.6408 61.2462 78.35 61.4105C78.0592 61.5749 77.7462 61.6603 77.4143 61.6697C76.9717 61.6776 76.5687 61.5749 76.2068 61.36C75.8432 61.1418 75.5556 60.8321 75.3406 60.4306C75.1288 60.0307 75.0182 59.5771 75.0055 59.0713C74.9961 58.5655 75.0893 58.1088 75.2837 57.6994C75.4813 57.2916 75.7547 56.9708 76.1056 56.7384C76.4549 56.5029 76.8421 56.3812 77.2689 56.3718C77.6103 56.3638 77.9295 56.4271 78.2299 56.5614C78.5286 56.6973 78.7688 56.8744 78.9506 57.0925L78.9443 56.8586C78.9395 56.7195 78.9774 56.6041 79.0581 56.5108C79.1418 56.4192 79.2509 56.3718 79.3868 56.3718ZM77.5028 60.8099C77.8063 60.8068 78.0734 60.7246 78.3057 60.5634C78.5412 60.399 78.723 60.1809 78.8494 59.9059C78.9759 59.6324 79.0343 59.3242 79.0264 58.9828C79.0217 58.6462 78.9506 58.3427 78.8115 58.0724C78.6724 57.8037 78.4827 57.5919 78.2425 57.4402C78.0023 57.2885 77.7304 57.2158 77.4269 57.2189C77.1187 57.2284 76.8485 57.3122 76.6177 57.4718C76.3854 57.633 76.2068 57.8511 76.0803 58.1293C75.9539 58.4043 75.8922 58.711 75.897 59.0524C75.9049 59.3938 75.9792 59.7004 76.1182 59.9691C76.2573 60.2346 76.4438 60.4432 76.6809 60.595C76.9212 60.7467 77.1946 60.8194 77.5028 60.8099Z" fill="#339FD7"/>
                    <path d="M89.8957 54.4902C90.0253 54.495 90.1375 54.5408 90.2307 54.6293C90.3224 54.7147 90.3698 54.8221 90.3698 54.9518L90.4963 60.8251C90.4994 60.9562 90.4599 61.0685 90.3761 61.1601C90.2908 61.2486 90.177 61.2961 90.0348 61.2992C89.8909 61.304 89.7724 61.2645 89.6807 61.1791C89.5875 61.0953 89.5385 60.9831 89.5353 60.844L89.4405 56.349L87.6197 59.2445C87.5723 59.3046 87.5154 59.3552 87.449 59.3962C87.3858 59.4342 87.3162 59.4516 87.2403 59.4468C87.1803 59.4563 87.1155 59.4437 87.0444 59.4089C86.9764 59.371 86.9195 59.3235 86.8737 59.2635L84.9138 56.3553L85.0086 60.9389C85.0118 61.0779 84.9738 61.1917 84.8948 61.2803C84.819 61.3688 84.7131 61.4162 84.5787 61.4193C84.4475 61.4193 84.34 61.3783 84.2563 61.2929C84.1709 61.2091 84.1267 61.0969 84.1235 60.9578L83.9971 55.0845C83.9971 54.9628 84.0413 54.8538 84.1298 54.7558C84.2183 54.6594 84.3321 54.6104 84.4712 54.6104C84.5471 54.6072 84.623 54.623 84.6988 54.6609C84.7747 54.6989 84.8348 54.7494 84.8822 54.8127L87.253 58.2456L89.5163 54.7115C89.6175 54.5693 89.7439 54.495 89.8957 54.4902Z" fill="#339FD7"/>
                    <path d="M96.0157 56.0124C96.1501 56.0092 96.2623 56.0503 96.3508 56.1388C96.4425 56.2242 96.4915 56.338 96.4962 56.4802L96.5847 60.6908C96.5879 60.822 96.5468 60.9342 96.4583 61.0259C96.3729 61.1191 96.2639 61.1681 96.1295 61.1713C95.9936 61.1713 95.883 61.1302 95.7944 61.0448C95.7091 60.9611 95.6648 60.8488 95.6617 60.7098V60.4569C95.4973 60.6892 95.2697 60.8868 94.9789 61.0512C94.6881 61.2155 94.3751 61.3009 94.0432 61.3104C93.6006 61.3183 93.1976 61.2155 92.8357 61.0006C92.4721 60.7825 92.1845 60.4727 91.9695 60.0712C91.7577 59.6713 91.6471 59.2177 91.6344 58.7119C91.625 58.2062 91.7182 57.7494 91.9126 57.34C92.1102 56.9323 92.3836 56.6114 92.7345 56.3791C93.0838 56.1436 93.471 56.0219 93.8978 56.0124C94.2392 56.0045 94.5585 56.0677 94.8588 56.202C95.1575 56.338 95.3977 56.515 95.5795 56.7331L95.5732 56.4992C95.5684 56.3601 95.6064 56.2447 95.687 56.1515C95.7707 56.0598 95.8798 56.0124 96.0157 56.0124ZM94.1317 60.4505C94.4352 60.4474 94.7023 60.3652 94.9346 60.204C95.1701 60.0396 95.3519 59.8215 95.4783 59.5465C95.6048 59.273 95.6633 58.9648 95.6554 58.6234C95.6506 58.2868 95.5795 57.9833 95.4404 57.713C95.3013 57.4444 95.1116 57.2326 94.8714 57.0808C94.6312 56.9291 94.3593 56.8564 94.0558 56.8595C93.7476 56.869 93.4774 56.9528 93.2466 57.1124C93.0143 57.2737 92.8357 57.4918 92.7092 57.7699C92.5828 58.045 92.5211 58.3516 92.5259 58.693C92.5338 59.0344 92.6081 59.341 92.7471 59.6097C92.8862 59.8752 93.0727 60.0839 93.3098 60.2356C93.5501 60.3873 93.8235 60.46 94.1317 60.4505Z" fill="#206099"/>
                    <path d="M98.8222 60.6442C98.8253 60.7754 98.7858 60.8876 98.702 60.9793C98.6167 61.0725 98.5076 61.1184 98.3733 61.1184C98.2421 61.1231 98.1299 61.0804 98.0382 60.9919C97.9497 60.9034 97.9023 60.7944 97.8991 60.6632L97.8106 56.4589C97.8059 56.3293 97.8454 56.2171 97.9307 56.1238C98.0192 56.0322 98.1283 55.9832 98.2595 55.9784C98.3938 55.9784 98.506 56.0227 98.5946 56.1112C98.6831 56.1997 98.7289 56.3103 98.7336 56.4399L98.8222 60.6442ZM98.2405 55.3399C98.054 55.3446 97.9197 55.3146 97.8359 55.2514C97.7553 55.185 97.7126 55.0744 97.7094 54.9226L97.7031 54.7709C97.7031 54.616 97.7442 54.5038 97.8296 54.4358C97.9181 54.3694 98.0524 54.3331 98.2342 54.3283C98.4144 54.3252 98.5456 54.3568 98.6262 54.4232C98.7099 54.4911 98.7526 54.5986 98.7526 54.7456L98.7589 54.8973C98.7621 55.0538 98.7226 55.166 98.6388 55.2324C98.5535 55.3004 98.4207 55.3367 98.2405 55.3399Z" fill="#206099"/>
                    <path d="M104.137 53.8068C104.271 53.8036 104.383 53.8447 104.472 53.9333C104.563 54.0186 104.612 54.1277 104.617 54.262L104.75 60.5146C104.753 60.6458 104.712 60.758 104.623 60.8497C104.538 60.943 104.429 60.992 104.295 60.9951C104.159 60.9951 104.048 60.954 103.959 60.8687C103.874 60.7849 103.83 60.6727 103.827 60.5336L103.82 60.2618C103.664 60.502 103.438 60.7075 103.144 60.875C102.853 61.0394 102.54 61.1247 102.208 61.1342C101.766 61.1421 101.363 61.0394 101.001 60.8244C100.642 60.6063 100.356 60.2965 100.141 59.8951C99.9259 59.4952 99.8121 59.0416 99.7995 58.5358C99.79 58.03 99.8833 57.5732 100.078 57.1639C100.275 56.7561 100.549 56.4353 100.9 56.2029C101.249 55.9674 101.636 55.8457 102.063 55.8362C102.404 55.8283 102.722 55.8915 103.017 56.0259C103.316 56.1618 103.558 56.3404 103.745 56.5633L103.694 54.281C103.689 54.1466 103.727 54.0344 103.808 53.9459C103.892 53.8542 104.001 53.8068 104.137 53.8068ZM102.297 60.2744C102.6 60.2712 102.867 60.1891 103.1 60.0278C103.335 59.8635 103.517 59.6453 103.643 59.3703C103.77 59.0969 103.828 58.7887 103.82 58.4473C103.816 58.1106 103.745 57.8072 103.605 57.5369C103.466 57.2635 103.277 57.0532 103.036 56.9047C102.796 56.7529 102.524 56.6802 102.221 56.6834C101.913 56.6929 101.642 56.7767 101.412 56.9363C101.179 57.0975 101.001 57.3156 100.874 57.5938C100.748 57.872 100.686 58.1802 100.691 58.5168C100.699 58.8582 100.773 59.1649 100.912 59.4336C101.051 59.6991 101.238 59.9077 101.475 60.0594C101.715 60.2112 101.989 60.2839 102.297 60.2744Z" fill="#206099"/>
                    </svg>